<svg width="33" height="22" viewBox="0 0 33 22" fill="none" xmlns="http://www.w3.org/2000/svg">
<path d="M30.5285 21.6207H2.47146C1.10647 21.6207 0 20.5142 0 19.1492V2.47145C0 1.10653 1.10647 0 2.47146 0H30.5285C31.8935 0 33 1.10647 33 2.47145V19.1493C33 20.5142 31.8935 21.6207 30.5285 21.6207Z" fill="#128400"/>
<path d="M6.82812 7.34775C6.88419 7.70721 7.10147 7.82 7.29031 7.80524C7.51306 7.78797 7.70842 7.58429 7.70842 7.36915V6.13564C7.70842 6.0739 7.75869 6.0235 7.82057 6.0235C7.88244 6.0235 7.93272 6.07383 7.93272 6.13564V7.37443C7.93272 7.52339 8.00632 7.66228 8.12975 7.74568C8.2051 7.79673 8.29282 7.82296 8.38118 7.82296C8.43745 7.82296 8.49398 7.8122 8.54786 7.79074L8.65994 7.74594C8.67025 8.78138 8.60728 9.69139 8.60612 9.70809C8.59736 9.83164 8.6903 9.93896 8.81386 9.94772C8.81933 9.94818 8.82469 9.94837 8.8301 9.94837C8.94676 9.94837 9.04518 9.85813 9.05362 9.74006C9.05884 9.66716 9.12794 8.67052 9.10718 7.56702L9.17499 7.53995C9.23441 7.51629 9.30119 7.51913 9.35836 7.54762C9.60541 7.67072 9.90266 7.62271 10.0979 7.42754L10.1383 7.3872C10.3195 7.20563 10.3819 6.94189 10.3007 6.69858L10.1098 6.12565C10.213 6.15672 10.3264 6.11102 10.3763 6.01157C10.4318 5.90078 10.3868 5.76607 10.276 5.71064L9.82751 5.48634C9.74636 5.44561 9.64898 5.45811 9.5802 5.51741C9.51163 5.57703 9.48572 5.67184 9.5144 5.75788L9.87527 6.84057C9.90228 6.92159 9.88152 7.00963 9.82113 7.07009L9.78078 7.11043C9.72232 7.16889 9.63325 7.18314 9.55881 7.14633C9.41346 7.0737 9.24795 7.0601 9.09268 7.09967C9.06116 6.37979 8.98363 5.66295 8.8185 5.16737C8.77937 5.04993 8.6526 4.98625 8.53471 5.02563C8.41721 5.06463 8.35373 5.1916 8.39291 5.30929C8.5545 5.79391 8.62488 6.53248 8.64989 7.26686L8.38138 7.37424V6.13545C8.38138 5.8262 8.12982 5.57471 7.82063 5.57471C7.51145 5.57471 7.25989 5.8262 7.25989 6.13545V7.22116L7.03108 6.09098C7.00672 5.96942 6.88851 5.89014 6.76683 5.91554C6.64533 5.94029 6.56683 6.05856 6.59151 6.17992L6.82812 7.34775Z" fill="#F5F5F5"/>
<path d="M7.25994 5.4628C7.38376 5.4628 7.48417 5.36245 7.48417 5.23851V5.01428C7.48417 4.89033 7.38376 4.78998 7.25994 4.78998C7.13606 4.78998 7.03564 4.89027 7.03564 5.01428V5.23851C7.03564 5.36245 7.13606 5.4628 7.25994 5.4628Z" fill="#F5F5F5"/>
<path d="M9.50274 5.23851H9.72704C9.85092 5.23851 9.95133 5.13822 9.95133 5.01428C9.95133 4.89033 9.85092 4.78998 9.72704 4.78998H9.50274C9.37886 4.78998 9.27844 4.89027 9.27844 5.01428C9.27844 5.13822 9.37886 5.23851 9.50274 5.23851Z" fill="#F5F5F5"/>
<path d="M8.04159 8.18614L6.92017 8.85903C6.81389 8.92278 6.77953 9.06052 6.84328 9.1668C6.8853 9.23692 6.95955 9.27566 7.0358 9.27566C7.07511 9.27566 7.11488 9.26535 7.15104 9.24363L8.27246 8.57074C8.37874 8.50699 8.4131 8.36926 8.34935 8.26297C8.28554 8.15675 8.14794 8.1224 8.04159 8.18614Z" fill="#F5F5F5"/>
<path d="M11.0653 8.58287L11.0706 8.57932C11.0894 8.65512 11.1217 8.72847 11.1741 8.79008C11.2653 8.8974 11.4019 8.95134 11.5563 8.93858C11.7754 8.9226 11.9243 8.8225 12.0229 8.69327C12.0379 8.70359 12.0537 8.713 12.0702 8.72131C12.1914 8.78241 12.3316 8.77777 12.4651 8.70855C12.8041 8.53401 12.8771 8.13015 12.8668 7.919C12.8607 7.79589 12.7561 7.70901 12.6333 7.70656C12.5101 7.71185 12.4142 7.81632 12.4186 7.93943C12.4187 7.94227 12.4237 8.20839 12.2611 8.3072C12.2345 8.2702 12.203 8.18693 12.1912 8.11816C12.1722 8.00272 12.0662 7.92235 11.9521 7.93157C11.8359 7.94072 11.746 8.03843 11.7456 8.15515C11.7456 8.18777 11.7383 8.47562 11.5161 8.49966C11.4903 8.4644 11.4898 8.3159 11.5153 8.20614C11.5367 8.1161 11.5006 8.02212 11.4245 7.96959C11.3482 7.91681 11.2476 7.91681 11.171 7.96876L11.0458 8.0539C10.9864 6.75323 10.8494 5.23762 10.8477 5.21822C10.8366 5.09511 10.7282 5.00333 10.6041 5.01519C10.4807 5.02634 10.3898 5.13546 10.401 5.25902C10.4029 5.27977 10.5614 7.03335 10.6102 8.37249C10.5987 8.38338 10.5869 8.39531 10.5757 8.40575C10.487 8.18216 10.3112 8.04127 10.0847 8.01987C9.76517 7.99164 9.41893 8.2091 9.2948 8.5197C9.1878 8.78692 9.25516 9.04957 9.46624 9.1886C9.61803 9.28869 9.84709 9.32021 10.1351 9.21928C10.0648 9.46632 9.93675 9.71692 9.77033 9.91073C9.62125 10.0844 9.37233 10.2848 9.05381 10.2759C8.86837 10.2686 8.72593 10.2079 8.61823 10.0902C8.35855 9.80651 8.38092 9.29314 8.38111 9.28766C8.38755 9.1641 8.293 9.05879 8.16951 9.05196C8.04518 9.03881 7.93999 9.13981 7.93316 9.26356C7.93161 9.29198 7.89906 9.96667 8.28533 10.3909C8.47547 10.6001 8.72806 10.712 9.03615 10.7241C9.05116 10.7247 9.06618 10.7249 9.08126 10.7249C9.45644 10.7249 9.82048 10.5409 10.1104 10.203C10.3832 9.88533 10.5685 9.45389 10.624 9.05337C10.6233 9.82062 10.1609 10.686 9.5479 11.0672C9.28758 11.2289 8.88172 11.3747 8.42455 11.1493C7.86097 10.8711 7.92813 10.227 7.9311 10.2007C7.9465 10.0778 7.8593 9.96564 7.73638 9.95037C7.61405 9.93548 7.50126 10.022 7.48605 10.1451C7.48102 10.1852 7.37325 11.1307 8.2261 11.5514C8.44517 11.6596 8.67424 11.7133 8.90511 11.7133C9.20166 11.7133 9.50098 11.6246 9.7847 11.4481C10.5311 10.9841 11.0728 9.97621 11.0728 9.05151C11.0727 8.90687 11.07 8.74896 11.0653 8.58287ZM9.71297 8.81406C9.67288 8.7875 9.7042 8.70281 9.71097 8.68599C9.75821 8.56772 9.90594 8.46543 10.024 8.46543C10.03 8.46543 10.0361 8.46563 10.042 8.46627C10.0707 8.46891 10.1468 8.47613 10.1795 8.64545C10.183 8.66343 10.186 8.6818 10.1883 8.70062C9.93836 8.84738 9.77078 8.85202 9.71297 8.81406Z" fill="#F5F5F5"/>
<path d="M7.37314 10.8769C7.26686 10.8144 7.12964 10.8501 7.06647 10.9564C7.05616 10.9737 7.0425 10.9926 7.02857 11.0096C7.02612 11.0039 7.02374 10.9978 7.02129 10.9911C6.92777 10.7416 6.99435 10.3573 7.02799 10.2302C7.05964 10.1106 6.98842 9.98799 6.86892 9.95596C6.74956 9.92528 6.62677 9.99495 6.59467 10.1146C6.57837 10.1752 6.4405 10.7197 6.60125 11.1486C6.70418 11.4228 6.86222 11.4921 6.97675 11.5014C6.98694 11.5023 6.99699 11.5027 7.00698 11.5027C7.24842 11.5027 7.4091 11.2594 7.45383 11.1822C7.51577 11.0755 7.47949 10.9395 7.37314 10.8769Z" fill="#F5F5F5"/>
<path d="M11.5121 6.80846C11.5606 6.80846 11.6094 6.79286 11.6504 6.7605L12.7811 5.87279C12.7967 5.86054 12.8067 5.8445 12.8181 5.82941C12.9809 5.73119 13.0912 5.55433 13.0912 5.35072C13.0912 5.04147 12.8396 4.78998 12.5304 4.78998C12.2212 4.78998 11.9697 5.04141 11.9697 5.35072C11.9697 5.52378 12.0501 5.67672 12.1736 5.77966L11.3733 6.40795C11.2759 6.48439 11.2589 6.62541 11.3354 6.72267C11.3797 6.77907 11.4456 6.80846 11.5121 6.80846ZM12.5305 5.23851C12.5924 5.23851 12.6427 5.28885 12.6427 5.35066C12.6427 5.41247 12.5924 5.4628 12.5305 5.4628C12.4687 5.4628 12.4184 5.41247 12.4184 5.35066C12.4184 5.28885 12.4687 5.23851 12.5305 5.23851Z" fill="#F5F5F5"/>
<path d="M12.265 6.59582C12.1469 6.55644 12.0204 6.62012 11.9813 6.73756C11.9573 6.80936 11.8488 7.17938 12.0687 7.39897C12.1539 7.48437 12.2661 7.52711 12.4037 7.52691C12.4958 7.52691 12.5991 7.50809 12.7136 7.46974C12.8311 7.43075 12.8946 7.30378 12.8554 7.18609C12.8162 7.06865 12.6894 7.00471 12.5716 7.04435C12.4463 7.08599 12.3933 7.07922 12.3885 7.08354C12.3753 7.05028 12.384 6.95012 12.407 6.87851C12.4458 6.7614 12.3823 6.63482 12.265 6.59582Z" fill="#F5F5F5"/>
<path d="M14.8319 5.66866C14.853 5.67479 14.8741 5.67762 14.8949 5.67762C14.992 5.67762 15.0815 5.61414 15.1101 5.51617L15.2409 5.06764C15.2756 4.94872 15.2073 4.82413 15.0885 4.78946C14.9693 4.75504 14.8451 4.82297 14.8103 4.94189L14.6795 5.39042C14.6448 5.50947 14.7131 5.63405 14.8319 5.66866Z" fill="#F5F5F5"/>
<path d="M13.5247 5.6424C13.5603 5.66322 13.5993 5.67308 13.6377 5.67308C13.7148 5.67308 13.7898 5.63344 13.8315 5.56209C13.894 5.45523 13.858 5.31762 13.7511 5.2553C13.706 5.229 13.7121 5.15475 13.7138 5.14005C13.7205 5.08114 13.7556 5.00928 13.8167 4.9902C13.935 4.95346 14.0011 4.82771 13.9643 4.70944C13.9273 4.59098 13.8018 4.52543 13.6833 4.56178C13.4597 4.63139 13.2967 4.83841 13.268 5.08901C13.2415 5.3222 13.3398 5.53425 13.5247 5.6424Z" fill="#F5F5F5"/>
<path d="M11.7455 9.27563C11.6216 9.27563 11.5212 9.37599 11.5212 9.49993C11.5212 9.60944 11.5996 9.70057 11.7034 9.72023C11.7152 9.73751 11.7454 9.79693 11.7454 9.94846C11.7454 10.0724 11.8459 10.1728 11.9697 10.1728C12.0936 10.1728 12.194 10.0725 12.194 9.94846C12.1941 9.28331 11.7638 9.27563 11.7455 9.27563Z" fill="#F5F5F5"/>
<path d="M15.5505 8.3469C15.5787 8.35154 15.6067 8.35374 15.6349 8.35374C15.8111 8.35374 15.9891 8.26485 16.1655 8.08851C16.2531 8.00092 16.2531 7.85899 16.1655 7.7714C16.0779 7.68381 15.936 7.68381 15.8484 7.7714C15.7142 7.90566 15.6421 7.90849 15.6236 7.9043C15.5808 7.89818 15.542 7.8423 15.5333 7.82702C15.4771 7.71791 15.3436 7.6744 15.2338 7.72931C15.123 7.78474 15.078 7.91945 15.1335 8.03025C15.1473 8.05802 15.2769 8.30243 15.5505 8.3469Z" fill="#F5F5F5"/>
<path d="M19.3629 6.77076C19.3615 6.76728 19.3601 6.76393 19.359 6.7609C19.3192 6.64443 19.1922 6.58107 19.0759 6.62071C18.9583 6.65971 18.8948 6.78668 18.934 6.90437C18.9515 6.9569 19.0514 7.22064 19.2989 7.2539C19.3154 7.25609 19.3319 7.25719 19.3482 7.25719C19.5036 7.25719 19.6494 7.15664 19.782 6.95774C19.8507 6.8548 19.8228 6.71552 19.7198 6.64675C19.6166 6.57817 19.4773 6.60576 19.4088 6.70901C19.391 6.7355 19.3757 6.75568 19.3629 6.77076Z" fill="#F5F5F5"/>
<path d="M18.9225 10.8455C18.9225 9.88913 18.8805 8.99188 18.8221 8.20568C19.1406 8.75798 19.4271 9.31608 19.6096 9.80296C19.6434 9.893 19.7288 9.94843 19.8196 9.94843C19.8457 9.94843 19.8724 9.94379 19.8983 9.93418C20.0144 9.89061 20.0731 9.76138 20.0296 9.6453C19.7457 8.8885 19.2355 7.98718 18.7326 7.18706C18.61 5.97889 18.4727 5.21203 18.4703 5.19836C18.4481 5.07642 18.3316 4.99404 18.2095 5.01783C18.0877 5.03994 18.0068 5.15666 18.0289 5.27848C18.0307 5.28821 18.1014 5.68324 18.1858 6.34808C18.0135 6.09239 17.8535 5.86171 17.7191 5.67183L17.73 5.67531C17.8482 5.7147 17.9745 5.65102 18.0138 5.53365C18.053 5.41602 17.9895 5.28898 17.872 5.24999L17.1991 5.02569C17.1058 4.99417 17.0034 5.0275 16.9463 5.10723C16.931 5.12849 16.9205 5.15183 16.9135 5.176C16.7792 5.07674 16.607 4.99598 16.4453 5.06372C16.3476 5.10426 16.231 5.20629 16.231 5.46275C16.231 5.65965 16.3061 5.87254 16.3858 6.09813C16.5178 6.47221 16.6005 6.7473 16.4607 6.87853C16.3834 6.95097 16.3061 6.97836 16.2308 6.95935C16.0925 6.92429 15.9556 6.74008 15.8644 6.46654C15.8604 6.45468 15.8522 6.44604 15.8465 6.43541C15.8937 6.08801 15.8731 5.66945 15.778 5.19449C15.7539 5.07294 15.636 4.99385 15.5141 5.0186C15.3926 5.0429 15.3139 5.16098 15.3382 5.28254C15.4847 6.01492 15.4407 6.61246 15.2207 6.88078C15.1356 6.98462 15.029 7.03276 14.8853 7.03276C14.8399 7.03276 14.8089 7.01832 14.778 6.98281C14.6011 6.77888 14.6018 6.12094 14.6589 5.71856C14.668 5.65443 14.6487 5.58914 14.6061 5.54003C14.5635 5.49098 14.5017 5.46275 14.4368 5.46275C14.0509 5.46275 13.9045 5.90161 13.7754 6.28891C13.7188 6.45913 13.6133 6.77559 13.5397 6.80846C13.4039 6.80846 13.3161 6.40982 13.3154 6.13538C13.315 6.01163 13.2147 5.91153 13.0911 5.91153C13.0911 5.91153 13.0909 5.91153 13.0907 5.91153C12.9669 5.91153 12.8667 6.01189 12.8667 6.13564C12.8667 6.65294 13.0429 7.25706 13.5396 7.25706C13.9094 7.25706 14.0592 6.8541 14.1846 6.4795C14.2064 6.77733 14.2737 7.08594 14.439 7.27652C14.5552 7.41059 14.7095 7.48129 14.8853 7.48129C15.1622 7.48129 15.398 7.37198 15.5675 7.16521C15.5983 7.12783 15.6247 7.08484 15.6508 7.04146C15.781 7.22664 15.9408 7.34871 16.1208 7.39415C16.1736 7.40749 16.2267 7.41426 16.2792 7.41426C16.4524 7.41426 16.6215 7.34285 16.7677 7.2055C16.798 7.17701 16.8194 7.14575 16.8426 7.115C16.8974 7.13067 16.953 7.13995 17.0083 7.13995C17.19 7.13995 17.3649 7.06679 17.4734 6.99712C17.5773 6.93054 17.6073 6.793 17.5414 6.68871C17.4754 6.58468 17.3371 6.55355 17.2326 6.61884C17.2306 6.61975 17.0808 6.70586 16.9787 6.68568C16.9789 6.43979 16.89 6.17869 16.8088 5.94866C16.7626 5.81763 16.7152 5.68344 16.6928 5.57374C16.7113 5.58933 16.7293 5.60551 16.7455 5.62124C16.8329 5.70883 16.9749 5.70883 17.0625 5.62124C17.077 5.60674 17.0854 5.58914 17.0951 5.57219C17.3276 5.89246 17.8057 6.56548 18.2976 7.34123C18.3915 8.29482 18.4739 9.51124 18.4739 10.8454C18.4739 10.9694 18.5743 11.0697 18.6982 11.0697C18.8221 11.0698 18.9225 10.9696 18.9225 10.8455Z" fill="#F5F5F5"/>
<path d="M19.1468 5.91133C19.1468 6.03527 19.2473 6.13562 19.3711 6.13562C19.495 6.13562 19.5954 6.03527 19.5954 5.91133C19.5954 5.64739 19.3889 5.22097 19.3475 5.13815C19.2921 5.02754 19.1575 4.98288 19.0465 5.03786C18.9358 5.09329 18.8908 5.22799 18.9463 5.33879C19.0271 5.50063 19.1468 5.79434 19.1468 5.91133Z" fill="#F5F5F5"/>
<path d="M18.1263 10.8701C18.0163 10.8141 17.8812 10.8585 17.8252 10.9689C17.8011 11.016 17.7638 11.0684 17.7323 11.1021C17.7224 11.013 17.7461 10.8349 17.7913 10.6873C17.8214 10.5887 17.7806 10.4823 17.6923 10.4293C17.6044 10.3761 17.491 10.3899 17.4183 10.4628L16.9697 10.9113C16.8822 10.9989 16.8822 11.1408 16.9697 11.2284C17.0573 11.316 17.1993 11.316 17.2869 11.2284L17.2983 11.217C17.3177 11.3071 17.3548 11.3892 17.4183 11.4527C17.5024 11.5368 17.604 11.5813 17.7097 11.5813C17.7302 11.5813 17.7508 11.5795 17.7714 11.5763C18.0255 11.5351 18.1837 11.255 18.2261 11.1702C18.2812 11.0595 18.2366 10.9258 18.1263 10.8701Z" fill="#F5F5F5"/>
<path d="M18.0394 9.06529H16.4586C16.4726 9.00947 16.4871 8.95617 16.5018 8.90564C17.1322 8.77461 17.5069 8.57113 17.617 8.29965C17.6551 8.20549 17.6949 8.01516 17.5326 7.79634C17.3864 7.59918 17.18 7.51075 16.9656 7.55451C16.6469 7.61909 16.363 7.9625 16.1592 8.51228C15.526 8.62069 15.1208 8.84796 14.8642 9.07232C14.7732 8.15322 14.4164 7.60723 14.399 7.58126C14.3303 7.47807 14.1909 7.45022 14.0881 7.519C13.985 7.58777 13.9572 7.72686 14.0258 7.82998C14.0299 7.83611 14.4367 8.45834 14.4367 9.49983C14.4367 10.5235 13.6204 11.2941 13.091 11.2941C12.8392 11.2941 12.7289 10.9948 12.6805 10.7416C13.1989 10.3783 13.6562 9.95797 13.7572 9.5541C13.8939 9.00761 13.7219 8.60484 13.6081 8.33832C13.6027 8.32608 13.5971 8.31293 13.5915 8.29933C13.5963 8.30371 13.6009 8.30829 13.6054 8.31267C13.6928 8.40026 13.8349 8.40026 13.9225 8.31267C14.0101 8.22508 14.0101 8.08309 13.9225 7.99556C13.7914 7.86434 13.5368 7.65822 13.3053 7.75502C13.2076 7.79556 13.091 7.89759 13.091 8.15405C13.091 8.26994 13.1394 8.38312 13.1955 8.51454C13.2965 8.75089 13.4221 9.04505 13.322 9.44537C13.2627 9.6823 12.9718 9.9697 12.5879 10.2551C12.5467 10.2059 12.4872 10.1728 12.4181 10.1728H12.4178C12.294 10.173 12.1938 10.2731 12.1938 10.3969C12.1938 10.4372 12.1956 10.4804 12.1982 10.5246C11.7182 10.8355 11.175 11.1232 10.7552 11.3141C10.6425 11.3654 10.5927 11.4983 10.6439 11.6111C10.6815 11.6937 10.763 11.7425 10.8482 11.7425C10.8793 11.7425 10.9108 11.7362 10.9409 11.7224C11.067 11.6651 11.6655 11.3862 12.2804 11.0052C12.3937 11.3897 12.6336 11.7426 13.0909 11.7426C13.629 11.7426 14.2393 11.3027 14.5916 10.6458C14.6342 10.7209 14.683 10.7928 14.7413 10.8599C15.3058 11.5109 16.4085 11.5183 16.4552 11.5183C16.576 11.5183 16.675 11.4228 16.6793 11.3021C16.6836 11.1814 16.5916 11.0789 16.4712 11.0704C16.4694 11.0702 16.2907 11.0505 16.1913 10.9344C16.1313 10.8642 16.1073 10.7679 16.1179 10.6398C16.1408 10.3634 17.0324 10.1568 17.8182 10.1446C17.9117 10.1431 17.9947 10.0837 18.0261 9.99548L18.2504 9.36474C18.2747 9.29616 18.2643 9.21972 18.2222 9.16042C18.1807 9.10074 18.1122 9.06529 18.0394 9.06529ZM17.0549 7.99427C17.0592 7.99344 17.0648 7.99208 17.072 7.99208C17.0934 7.99208 17.1273 8.00259 17.1724 8.0635C17.1809 8.0749 17.2082 8.11383 17.2013 8.13098C17.1756 8.19446 17.0207 8.2994 16.6981 8.39446C16.84 8.11757 16.9788 8.00961 17.0549 7.99427ZM15.7004 10.9426C15.4726 10.8685 15.2404 10.7511 15.0796 10.5652C14.9029 10.3609 14.8377 10.1024 14.8805 9.77537C14.887 9.75816 14.9017 9.72432 14.9273 9.6803C15.2431 9.65136 16.0869 9.77589 16.1453 10.0175C15.8851 10.1503 15.6934 10.3371 15.6712 10.6026C15.6601 10.7359 15.6737 10.8486 15.7004 10.9426Z" fill="#F5F5F5"/>
<path d="M20.481 5.84041L20.2567 5.16752C20.2206 5.05937 20.1083 4.99472 19.9971 5.01921C19.8852 5.04312 19.8094 5.14709 19.8208 5.26078C19.9755 6.80843 20.2683 9.82658 20.2683 10.1727C20.2683 10.4835 19.7155 11.0954 18.8223 11.5421C18.7115 11.5975 18.6665 11.7321 18.722 11.843C18.7613 11.9216 18.8405 11.9669 18.9228 11.9669C18.9565 11.9669 18.9908 11.9593 19.0229 11.9433C19.8388 11.5353 20.7169 10.8072 20.7169 10.1727C20.7169 9.84127 20.4877 7.45702 20.3564 6.11768C20.4627 6.07231 20.5182 5.95217 20.481 5.84041Z" fill="#F5F5F5"/>
<path d="M22.3525 7.86422C22.3957 7.9074 22.453 7.92996 22.5112 7.92996C22.5491 7.92996 22.5873 7.92035 22.622 7.90057C22.7097 7.85062 22.7533 7.74814 22.7285 7.65023C22.6883 7.49258 22.6749 7.29542 22.6962 7.21485C22.8085 7.21833 22.9128 7.13841 22.9293 7.02252C22.9468 6.89987 22.8616 6.78617 22.739 6.76871C22.5907 6.7486 22.4605 6.7921 22.3696 6.8933C22.3107 6.95904 22.2756 7.04334 22.2566 7.13403L21.9968 6.87428C21.9093 6.78669 21.7673 6.78669 21.6797 6.87428C21.5921 6.96187 21.5921 7.1038 21.6797 7.19139L22.3525 7.86422Z" fill="#F5F5F5"/>
<path d="M22.857 8.09814L22.016 8.7009C21.9154 8.77296 21.8921 8.91315 21.9643 9.01389C22.0081 9.07499 22.0769 9.10741 22.1469 9.10741C22.1921 9.10741 22.2378 9.09381 22.2773 9.06539L23.1184 8.46262C23.219 8.39056 23.2422 8.25038 23.1701 8.14964C23.0978 8.04883 22.9574 8.02537 22.857 8.09814Z" fill="#F5F5F5"/>
<path d="M22.7825 8.94156C22.7119 9.03244 22.7221 9.16031 22.8022 9.23901C22.8118 9.25525 22.8555 9.34104 22.8476 9.56186C22.8432 9.6858 22.94 9.78963 23.0638 9.79402C23.0665 9.79421 23.0693 9.79421 23.0719 9.79421C23.1922 9.79421 23.2916 9.69888 23.296 9.57804C23.3123 9.12029 23.1625 8.95297 23.0974 8.90231C22.9997 8.82593 22.8586 8.84391 22.7825 8.94156Z" fill="#F5F5F5"/>
<path d="M24.7398 10.5932C24.8637 10.5932 24.9641 10.4929 24.9641 10.3689C24.9641 10.038 24.9471 9.66857 24.9193 9.28423C25.1417 9.64865 25.3264 9.98465 25.4449 10.261C25.4813 10.3462 25.564 10.397 25.6512 10.397C25.6806 10.397 25.7106 10.3913 25.7394 10.3788C25.8532 10.3299 25.9059 10.1981 25.8571 10.0844C25.6517 9.60521 25.268 8.97048 24.8309 8.31518C24.743 7.49199 24.628 6.68535 24.5387 6.10676C24.5862 6.11159 24.6355 6.09999 24.6788 6.07189C24.7496 6.02652 24.7828 5.94769 24.778 5.86925C24.7838 5.89129 24.7899 5.9134 24.8028 5.9337C24.8043 5.93589 24.9485 6.17392 24.8846 6.48284C24.8594 6.60395 24.9375 6.72267 25.0588 6.74781C25.0741 6.75084 25.0895 6.75245 25.1044 6.75245C25.2085 6.75245 25.3018 6.67949 25.3239 6.57353C25.4251 6.08356 25.1912 5.70863 25.1813 5.69284C25.1147 5.58856 24.976 5.55794 24.8715 5.62407C24.8004 5.66938 24.7668 5.74827 24.7714 5.8269C24.7656 5.80473 24.7591 5.78243 24.7461 5.76213L24.3676 5.17341C24.3098 5.08357 24.1966 5.04721 24.0973 5.08582C23.9977 5.12482 23.9395 5.22839 23.958 5.33351C23.9611 5.35117 24.1325 6.33537 24.2844 7.52163C24.1125 7.27884 23.9406 7.04133 23.7738 6.81484C23.7468 6.47549 23.7196 6.1618 23.696 5.90238C23.7084 5.8987 23.7206 5.89387 23.7325 5.88794C23.8433 5.83251 23.8883 5.6978 23.8329 5.58701L23.6086 5.13848C23.5602 5.04167 23.4497 4.99346 23.3457 5.02324C23.2418 5.05347 23.174 5.1533 23.1848 5.26107C23.2115 5.52874 23.2394 5.82503 23.2667 6.13628C23.1249 5.94924 22.9936 5.77811 22.8813 5.63316C22.9032 5.61434 22.9219 5.59094 22.9357 5.56329C22.9911 5.4525 22.9462 5.31779 22.8354 5.26236L22.3869 5.03806C22.2928 4.9912 22.1786 5.01576 22.1121 5.09768C22.046 5.1796 22.0456 5.29652 22.1115 5.37889C22.1236 5.39397 22.6758 6.0862 23.3364 6.97965C23.451 8.46149 23.5273 10.003 23.4195 10.3262C23.3998 10.3854 23.3654 10.455 23.3331 10.4574C23.1976 10.4762 22.874 10.1732 22.7115 9.84833C22.6179 9.66128 22.4832 9.64182 22.4111 9.64504C22.17 9.65993 22.076 9.92516 21.9051 10.4066C21.7826 10.7516 21.6303 11.1804 21.4594 11.3559C21.3668 11.2427 21.247 10.8631 21.1805 10.4729C21.2117 10.5591 21.2925 10.6215 21.3895 10.6215C21.5134 10.6215 21.6138 10.5212 21.6138 10.3973C21.6138 10.0628 21.3799 7.51551 21.2493 6.11952C21.3584 6.07569 21.4157 5.95375 21.378 5.8407L21.1538 5.16781C21.1177 5.05965 21.0071 4.99584 20.8945 5.01931C20.783 5.04296 20.7068 5.14654 20.7177 5.26004C20.8701 6.86002 21.1559 9.95042 21.1648 10.377C21.1642 10.3731 21.1634 10.3694 21.1629 10.3655C21.1455 10.2428 21.031 10.1587 20.9092 10.1752C20.7865 10.1929 20.7014 10.3064 20.7189 10.429C20.7844 10.8874 20.9518 11.6756 21.3372 11.804C21.3676 11.8143 21.4086 11.8235 21.4567 11.8235C21.5451 11.8235 21.6575 11.7922 21.7723 11.6772C22.0166 11.433 22.1819 10.9673 22.3278 10.5567C22.3608 10.4638 22.3998 10.3538 22.4365 10.2597C22.6422 10.5601 23.0013 10.9342 23.365 10.905C23.4929 10.8958 23.7255 10.827 23.8451 10.4682C23.9644 10.1105 23.9172 8.86271 23.8369 7.66807C24.0258 7.93291 24.215 8.20413 24.3955 8.47193C24.4655 9.1436 24.5156 9.81649 24.5156 10.3692C24.5156 10.4929 24.616 10.5932 24.7398 10.5932Z" fill="#F5F5F5"/>
<path d="M26.4419 9.41356C26.283 8.22994 26.0617 6.85883 25.9215 6.01733C25.9848 6.03293 26.0538 6.02017 26.1094 5.97744C26.2079 5.90235 26.2268 5.76152 26.1516 5.66316L25.7451 5.13046C25.6824 5.04854 25.5717 5.01966 25.477 5.06104C25.3823 5.10242 25.3281 5.20323 25.3458 5.30506C25.3499 5.32801 25.7498 7.6304 25.9972 9.47312C26.0917 10.1773 25.9537 10.8066 25.6279 11.1561C25.4185 11.3807 25.141 11.4822 24.8052 11.4627C24.6819 11.4561 24.575 11.549 24.5673 11.6725C24.5595 11.7961 24.6533 11.9025 24.777 11.9103C24.8149 11.9128 24.8522 11.9138 24.8892 11.9138C25.3122 11.9138 25.6792 11.7588 25.956 11.4618C26.3787 11.0085 26.5559 10.2618 26.4419 9.41356Z" fill="#F5F5F5"/>
<path d="M23.9745 10.892C23.8921 10.9815 23.8984 11.1226 23.9856 11.2071C23.9978 11.2189 24.0124 11.2422 24.0124 11.2536C24.0125 11.2599 24.0035 11.2788 23.9785 11.3037C23.8909 11.3913 23.8909 11.5333 23.9785 11.6209C24.0224 11.6647 24.0797 11.6866 24.1372 11.6866C24.1945 11.6866 24.2519 11.6647 24.2958 11.6209C24.438 11.4787 24.4641 11.3344 24.4609 11.2382C24.454 11.0312 24.313 10.8976 24.2849 10.8729C24.1932 10.7932 24.0569 10.8028 23.9745 10.892Z" fill="#F5F5F5"/>
<path d="M23.1839 15.8106H22.9596H21.614V15.5863C21.614 15.4624 21.5136 15.362 21.3897 15.362C21.2658 15.362 21.1654 15.4624 21.1654 15.5863V15.8106H9.27844C9.72697 16.2591 10.6241 16.4835 11.297 16.4835C11.7795 16.4835 17.799 16.4835 21.1654 16.4835V16.932C21.1654 17.056 21.2658 17.1563 21.3897 17.1563H23.1839C23.555 17.1563 23.8568 16.8545 23.8568 16.4834C23.8568 16.1124 23.555 15.8106 23.1839 15.8106ZM23.1839 16.7077H21.6139V16.4834C22.6948 16.4834 23.4082 16.4834 23.4082 16.4834L23.3679 16.3627C23.3912 16.398 23.4082 16.4379 23.4082 16.4834C23.4082 16.6072 23.3076 16.7077 23.1839 16.7077Z" fill="#F5F5F5"/>
</svg>
