<svg width="31" height="30" viewBox="0 0 31 30" fill="none" xmlns="http://www.w3.org/2000/svg">
<path d="M28.9795 8.63115C28.2172 6.94672 27.123 5.43443 25.7336 4.13115C24.3443 2.84016 22.7336 1.81967 20.9386 1.10656C19.082 0.368852 17.1148 0 15.0861 0C13.0574 0 11.0902 0.368852 9.23362 1.10656C7.43854 1.81967 5.82788 2.82787 4.43854 4.13115C3.04919 5.43443 1.95494 6.94672 1.19265 8.63115C0.405762 10.3771 0 12.2459 0 14.1639C0 17.5205 1.25409 20.7418 3.55327 23.2992L2.32376 30L8.86477 27.0861C10.8197 27.9221 12.8976 28.3402 15.0738 28.3402C17.1025 28.3402 19.0697 27.9713 20.9263 27.2336C22.7213 26.5205 24.332 25.5123 25.7213 24.209C27.1107 22.9057 28.2049 21.3934 28.9672 19.709C29.7541 17.9631 30.1599 16.0943 30.1599 14.1762C30.1722 12.2459 29.7664 10.3893 28.9795 8.63115Z" fill="white"/>
</svg>
