<svg width="16" height="15" viewBox="0 0 16 15" fill="none" xmlns="http://www.w3.org/2000/svg">
<path d="M14.2091 9.99179C13.5697 9.67212 13.1026 9.4754 12.7706 9.35245C12.5616 9.27868 12.0698 9.05736 11.8976 9.19261C11.3566 9.63523 10.7788 10.8893 10.164 11.1229C8.63942 10.8279 7.22549 9.78277 6.11894 8.7131C5.62713 8.24589 4.7173 6.91802 4.52058 6.56146C4.48369 6.19261 5.1476 5.70081 5.29514 5.41802C6.05744 4.55736 5.47959 4.01638 5.38123 3.65982C5.2091 3.29097 4.91403 2.62704 4.65583 2.08605C4.43452 1.72949 4.38529 1.20081 3.99185 1.00408C2.31972 0.143429 1.36075 1.86474 0.967309 2.76228C-1.40564 8.47949 12.8566 19.3606 15.7583 11.8606C15.9058 11.209 15.8443 10.9631 15.623 10.668C15.1804 10.3606 14.664 10.2254 14.2091 9.99179Z" fill="#5A6CF3"/>
</svg>
