<svg width="24" height="24" viewBox="0 0 24 24" fill="none" xmlns="http://www.w3.org/2000/svg">
<path d="M22.5217 2.86957H19.1739V0.478261C19.1739 0.351418 19.1235 0.229771 19.0338 0.140079C18.9441 0.0503881 18.8225 0 18.6957 0L5.30435 0C5.17751 0 5.05586 0.0503881 4.96617 0.140079C4.87648 0.229771 4.82609 0.351418 4.82609 0.478261V2.86957H1.47826C1.35142 2.86957 1.22977 2.91995 1.14008 3.00964C1.05039 3.09934 1 3.22098 1 3.34783V6.21739C1.03625 7.37604 1.44607 8.49194 2.16833 9.39865C2.8906 10.3054 3.88661 10.9543 5.00783 11.2487C5.25619 12.4772 5.80696 13.6243 6.6103 14.5863C7.41365 15.5483 8.4442 16.2948 9.6087 16.7583V18.767C9.58889 19.1306 9.4278 19.4722 9.15976 19.7188C8.89173 19.9654 8.53797 20.0975 8.17391 20.087H6.82522C6.73558 20.0868 6.6477 20.1118 6.57159 20.1591C6.49549 20.2065 6.43422 20.2743 6.39478 20.3548L4.96 23.2243C4.93225 23.2809 4.91593 23.3423 4.91197 23.4051C4.90801 23.4679 4.91649 23.5309 4.93693 23.5905C4.95737 23.65 4.98937 23.7049 5.03108 23.7521C5.07279 23.7992 5.1234 23.8377 5.18 23.8652C5.246 23.8958 5.31771 23.9121 5.39043 23.913H18.7817C18.9086 23.913 19.0302 23.8627 19.1199 23.773C19.2096 23.6833 19.26 23.5616 19.26 23.4348C19.2591 23.3621 19.2428 23.2903 19.2122 23.2243L17.7774 20.3548C17.738 20.2743 17.6767 20.2065 17.6006 20.1591C17.5245 20.1118 17.4366 20.0868 17.347 20.087H15.8261C15.462 20.0975 15.1083 19.9654 14.8402 19.7188C14.5722 19.4722 14.4111 19.1306 14.3913 18.767V16.7583C15.5558 16.2948 16.5864 15.5483 17.3897 14.5863C18.193 13.6243 18.7438 12.4772 18.9922 11.2487C20.1134 10.9543 21.1094 10.3054 21.8317 9.39865C22.5539 8.49194 22.9637 7.37604 23 6.21739V3.34783C23 3.22098 22.9496 3.09934 22.8599 3.00964C22.7702 2.91995 22.6486 2.86957 22.5217 2.86957Z" fill="#D91E41"/>
<path d="M18.2174 9.56524C18.2743 11.2759 17.6527 12.9397 16.4881 14.1939C15.3234 15.4482 13.7102 16.1912 12 16.2609C10.2898 16.1912 8.67654 15.4482 7.51189 14.1939C6.34723 12.9397 5.72563 11.2759 5.78259 9.56524V0.956543H18.2174V9.56524Z" fill="#D91E41"/>
<path d="M16.1955 5.87044H13.5482L12.6745 3.51118C12.6221 3.36147 12.5238 3.23173 12.3933 3.14008C12.2627 3.04843 12.1065 2.99946 11.9465 3C11.7849 3.00038 11.6275 3.05126 11.4968 3.1454C11.366 3.23954 11.2687 3.37213 11.2185 3.52428L10.4243 5.87044H7.77696C7.6181 5.87542 7.46455 5.92828 7.33682 6.02196C7.2091 6.11564 7.11329 6.24568 7.06218 6.39472C6.99841 6.54756 6.98325 6.71603 7.01873 6.87763C7.05421 7.03923 7.13863 7.18626 7.26073 7.2991L9.49773 9.30447L8.70353 12.0176C8.64542 12.2088 8.6656 12.415 8.75972 12.5915C8.85384 12.7681 9.01433 12.9009 9.20653 12.9613C9.32454 12.9981 9.44968 13.0066 9.57166 12.9861C9.69363 12.9655 9.80893 12.9166 9.90807 12.8434L12.0127 11.2312L14.1041 12.8302C14.2318 12.9328 14.3895 12.9921 14.5538 12.9993C14.7181 13.0065 14.8803 12.9612 15.0167 12.8702C15.1531 12.7792 15.2564 12.6472 15.3113 12.4937C15.3662 12.3403 15.3699 12.1733 15.3219 12.0176L14.488 9.26515L16.7117 7.32531C16.8776 7.18113 16.9801 6.97856 16.9974 6.76069C17.0147 6.54282 16.9455 6.32687 16.8044 6.15879C16.6477 5.98696 16.4289 5.88333 16.1955 5.87044Z" fill="white"/>
<path d="M1.95654 6.21748V3.82617H4.82611V10.2157C4.0074 9.90567 3.29841 9.36089 2.78795 8.64965C2.27749 7.93842 1.98828 7.09236 1.95654 6.21748Z" fill="#D91E41"/>
<path d="M17.9974 22.9565H6.16522L7.12174 21.0435H17.0409L17.9974 22.9565Z" fill="#D91E41"/>
<path d="M13.9035 20.0869H10.0774C10.3827 19.7136 10.5544 19.249 10.5652 18.7669V17.0452C11.5112 17.2461 12.4888 17.2461 13.4348 17.0452V18.7669C13.443 19.2462 13.6076 19.7097 13.9035 20.0869Z" fill="#D91E41"/>
<path d="M22.0435 6.21748C22.0068 7.08871 21.7154 7.93006 21.2054 8.63734C20.6953 9.34461 19.989 9.88675 19.1739 10.1966V3.82617H22.0435V6.21748Z" fill="#D91E41"/>
</svg>
