<svg width="26" height="24" viewBox="0 0 26 24" fill="none" xmlns="http://www.w3.org/2000/svg">
<path d="M4.00006 5.75H4.89642C5.50056 5.75 6.07232 5.47692 6.45202 5.00702L7.98132 3.11447C8.55088 2.40962 9.40852 2 10.3147 2H15.709C16.6182 2 17.4783 2.41227 18.0477 3.121L19.5595 5.00267C19.9392 5.47515 20.5126 5.75 21.1187 5.75H22.0001C23.6569 5.75 25.0001 7.09315 25.0001 8.75V18C25.0001 20.7614 22.7615 23 20.0001 23H6.00006C3.23864 23 1.00006 20.7614 1.00006 18V8.75C1.00006 7.09315 2.34321 5.75 4.00006 5.75Z" stroke="#717171" stroke-width="1.5" stroke-linecap="round" stroke-linejoin="round"/>
<path d="M13.0001 19.5713C16.0328 19.5713 18.4913 17.1128 18.4913 14.0801C18.4913 11.0474 16.0328 8.58887 13.0001 8.58887C9.96734 8.58887 7.50885 11.0474 7.50885 14.0801C7.50885 17.1128 9.96734 19.5713 13.0001 19.5713Z" stroke="#717171" stroke-width="1.5" stroke-linecap="round" stroke-linejoin="round"/>
<path d="M11.752 10.8352C10.9967 10.8352 9.75519 12.0181 9.75519 12.832" stroke="#717171" stroke-width="1.5" stroke-linecap="round" stroke-linejoin="round"/>
<path d="M11.0001 5.59521H15.0001" stroke="#717171" stroke-width="1.5" stroke-linecap="round" stroke-linejoin="round"/>
</svg>
