<svg width="46" height="31" viewBox="0 0 46 31" fill="none" xmlns="http://www.w3.org/2000/svg">
<path fill-rule="evenodd" clip-rule="evenodd" d="M40.9041 10.7421L40.7006 9.9825C40.6579 9.81571 40.5818 9.65936 40.4769 9.52281C40.372 9.38626 40.2406 9.27232 40.0905 9.188C39.9403 9.10368 39.7747 9.05074 39.6035 9.03223C39.4324 9.01372 39.2592 9.03007 39.0945 9.08035L36.1242 9.87623L36.2546 8.40419L37.9125 7.12312C38.0526 7.01052 38.1437 6.84806 38.1668 6.66979C38.1899 6.49153 38.1432 6.31126 38.0364 6.16667C37.9863 6.09482 37.9222 6.03382 37.8481 5.9873C37.7739 5.94077 37.6911 5.90975 37.6046 5.89598C37.5181 5.88221 37.4297 5.88601 37.3447 5.9072C37.2598 5.92839 37.1799 5.96652 37.11 6.01927L35.226 7.47454C35.1536 7.52999 35.0934 7.59996 35.0494 7.67987C35.0054 7.75978 34.9784 7.84793 34.9702 7.93881L34.8512 10.2173L31.4566 11.1269C31.2889 11.1657 31.1307 11.2381 30.9918 11.3397C30.8528 11.4414 30.7358 11.57 30.6479 11.7181C30.5601 11.8662 30.5032 12.0306 30.4807 12.2013C30.4581 12.372 30.4704 12.5454 30.5168 12.7113L30.7521 13.5896C30.586 13.6224 30.4284 13.6891 30.2891 13.7853C30.1498 13.8816 30.0317 14.0055 29.9423 14.1493C29.8529 14.2931 29.794 14.4537 29.7693 14.6212C29.7446 14.7888 29.7546 14.9596 29.7987 15.1231L30.2648 16.8628C30.3077 17.0332 30.3838 17.1935 30.4886 17.3344C30.5935 17.4754 30.7251 17.5944 30.8759 17.6845C31.0268 17.7746 31.1939 17.8341 31.3678 17.8596C31.5416 17.885 31.7188 17.8759 31.8891 17.8329L31.8951 17.8313C31.9112 17.8999 31.9328 17.9671 31.9594 18.0324L35.3881 25.7365C35.5146 26.0253 35.7401 26.2595 36.024 26.3968C36.3078 26.5342 36.6314 26.5658 36.9364 26.4859L42.0284 25.1215C42.3325 25.0382 42.5969 24.8491 42.774 24.5882C42.9512 24.3273 43.0294 24.0117 42.9946 23.6983L42.1118 15.312C42.1023 15.2422 42.0873 15.1732 42.067 15.1057L42.073 15.1041C42.242 15.0562 42.4 14.9755 42.5378 14.8666C42.6756 14.7576 42.7906 14.6224 42.8762 14.469C42.9618 14.3155 43.0163 14.1467 43.0366 13.9722C43.0569 13.7977 43.0427 13.6209 42.9946 13.4518L42.5285 11.7122C42.4856 11.5418 42.4095 11.3815 42.3046 11.2405C42.1998 11.0995 42.0682 10.9806 41.9173 10.8905C41.7665 10.8004 41.5994 10.741 41.4255 10.7155C41.2517 10.69 41.0745 10.699 40.9041 10.7421V10.7421ZM31.7898 12.3702L39.4276 10.3236L39.663 11.202L32.0251 13.2485L31.7898 12.3702ZM41.6827 23.8316L36.5908 25.1959L33.1621 17.4918L40.8 15.4452L41.6827 23.8316ZM41.7216 13.7929L31.5378 16.5217L31.0932 14.8626L41.2771 12.1339L41.7216 13.7929Z" fill="#5A6CF3"/>
<path fill-rule="evenodd" clip-rule="evenodd" d="M25.9041 5.74206L25.7006 4.9825C25.6579 4.81571 25.5818 4.65936 25.4769 4.52281C25.372 4.38626 25.2406 4.27232 25.0905 4.188C24.9403 4.10368 24.7747 4.05074 24.6035 4.03223C24.4324 4.01372 24.2592 4.03007 24.0945 4.08035L21.1242 4.87623L21.2546 3.40419L22.9125 2.12312C23.0526 2.01052 23.1437 1.84806 23.1668 1.66979C23.1899 1.49153 23.1432 1.31126 23.0364 1.16667C22.9863 1.09482 22.9222 1.03382 22.8481 0.987296C22.7739 0.940774 22.6911 0.909746 22.6046 0.89598C22.5181 0.882213 22.4297 0.886013 22.3447 0.907199C22.2598 0.928385 22.1799 0.966517 22.11 1.01927L20.226 2.47454C20.1536 2.52999 20.0934 2.59996 20.0494 2.67987C20.0054 2.75978 19.9784 2.84793 19.9702 2.93881L19.8512 5.21733L16.4566 6.12691C16.2889 6.1657 16.1307 6.23813 15.9918 6.33975C15.8528 6.44137 15.7358 6.57003 15.6479 6.71811C15.5601 6.86619 15.5032 7.0306 15.4807 7.20129C15.4581 7.37198 15.4704 7.54544 15.5168 7.71125L15.7521 8.58964C15.586 8.62243 15.4284 8.68905 15.2891 8.78532C15.1498 8.88159 15.0317 9.00547 14.9423 9.14927C14.8529 9.29308 14.794 9.4537 14.7693 9.62123C14.7446 9.78875 14.7546 9.95961 14.7987 10.1231L15.2648 11.8628C15.3077 12.0332 15.3838 12.1935 15.4886 12.3344C15.5935 12.4754 15.7251 12.5944 15.8759 12.6845C16.0268 12.7746 16.1939 12.8341 16.3678 12.8596C16.5416 12.885 16.7188 12.8759 16.8891 12.8329L16.8951 12.8313C16.9112 12.8999 16.9328 12.9671 16.9594 13.0324L20.3881 20.7365C20.5146 21.0253 20.7401 21.2595 21.024 21.3968C21.3078 21.5342 21.6314 21.5658 21.9364 21.4859L27.0284 20.1215C27.3325 20.0382 27.5969 19.8491 27.774 19.5882C27.9512 19.3273 28.0294 19.0117 27.9946 18.6983L27.1118 10.312C27.1023 10.2422 27.0873 10.1732 27.067 10.1057L27.073 10.1041C27.242 10.0562 27.4 9.97555 27.5378 9.86657C27.6756 9.75759 27.7906 9.62244 27.8762 9.469C27.9618 9.31555 28.0163 9.14675 28.0366 8.97222C28.0569 8.7977 28.0427 8.62086 27.9946 8.45185L27.5285 6.71217C27.4856 6.54178 27.4095 6.3815 27.3046 6.24052C27.1998 6.09953 27.0682 5.98059 26.9173 5.8905C26.7665 5.80041 26.5994 5.74097 26.4255 5.7155C26.2517 5.69003 26.0745 5.69902 25.9041 5.74206V5.74206ZM16.7898 7.37016L24.4276 5.32359L24.663 6.20198L17.0251 8.24854L16.7898 7.37016ZM26.6827 18.8316L21.5908 20.1959L18.1621 12.4918L25.8 10.4452L26.6827 18.8316ZM26.7216 8.79294L16.5378 11.5217L16.0932 9.86262L26.2771 7.13386L26.7216 8.79294Z" fill="#5A6CF3"/>
<path fill-rule="evenodd" clip-rule="evenodd" d="M12.9041 13.7421L12.7006 12.9825C12.6579 12.8157 12.5818 12.6594 12.4769 12.5228C12.372 12.3863 12.2406 12.2723 12.0905 12.188C11.9403 12.1037 11.7747 12.0507 11.6035 12.0322C11.4324 12.0137 11.2592 12.0301 11.0945 12.0803L8.12423 12.8762L8.25462 11.4042L9.91245 10.1231C10.0526 10.0105 10.1437 9.84806 10.1668 9.66979C10.1899 9.49153 10.1432 9.31126 10.0364 9.16667C9.98631 9.09482 9.92225 9.03382 9.84805 8.9873C9.77386 8.94077 9.69106 8.90975 9.60457 8.89598C9.51808 8.88221 9.42971 8.88601 9.34473 8.9072C9.25976 8.92839 9.17994 8.96652 9.11003 9.01927L7.22601 10.4745C7.15356 10.53 7.09342 10.6 7.04939 10.6799C7.00535 10.7598 6.97839 10.8479 6.97021 10.9388L6.85125 13.2173L3.45663 14.1269C3.28888 14.1657 3.13074 14.2381 2.99175 14.3397C2.85276 14.4414 2.73579 14.57 2.64795 14.7181C2.56011 14.8662 2.50323 15.0306 2.48068 15.2013C2.45813 15.372 2.4704 15.5454 2.51678 15.7113L2.75214 16.5896C2.58601 16.6224 2.42842 16.6891 2.28911 16.7853C2.1498 16.8816 2.03174 17.0055 1.94233 17.1493C1.85291 17.2931 1.79402 17.4537 1.7693 17.6212C1.74459 17.7888 1.75459 17.9596 1.79866 18.1231L2.26481 19.8628C2.3077 20.0332 2.38376 20.1935 2.48862 20.3344C2.59348 20.4754 2.72507 20.5944 2.87592 20.6845C3.02677 20.7746 3.19393 20.8341 3.36778 20.8596C3.54163 20.885 3.71877 20.8759 3.88912 20.8329L3.89505 20.8313C3.91124 20.8999 3.93275 20.9671 3.95939 21.0324L7.38808 28.7365C7.51464 29.0253 7.74013 29.2595 8.02398 29.3968C8.30782 29.5342 8.63139 29.5658 8.93644 29.4859L14.0284 28.1215C14.3325 28.0382 14.5969 27.8491 14.774 27.5882C14.9512 27.3273 15.0294 27.0117 14.9946 26.6983L14.1118 18.312C14.1023 18.2422 14.0873 18.1732 14.067 18.1057L14.073 18.1041C14.242 18.0562 14.4 17.9755 14.5378 17.8666C14.6756 17.7576 14.7906 17.6224 14.8762 17.469C14.9618 17.3155 15.0163 17.1467 15.0366 16.9722C15.0569 16.7977 15.0427 16.6209 14.9946 16.4518L14.5285 14.7122C14.4856 14.5418 14.4095 14.3815 14.3046 14.2405C14.1998 14.0995 14.0682 13.9806 13.9173 13.8905C13.7665 13.8004 13.5994 13.741 13.4255 13.7155C13.2517 13.69 13.0745 13.699 12.9041 13.7421V13.7421ZM3.78976 15.3702L11.4276 13.3236L11.663 14.202L4.02512 16.2485L3.78976 15.3702ZM13.6827 26.8316L8.59079 28.1959L5.1621 20.4918L12.8 18.4452L13.6827 26.8316ZM13.7216 16.7929L3.53779 19.5217L3.09324 17.8626L13.2771 15.1339L13.7216 16.7929Z" fill="#5A6CF3"/>
</svg>
