<svg width="24" height="24" viewBox="0 0 24 24" fill="none" xmlns="http://www.w3.org/2000/svg">
<path d="M3.87865 11.5269H5.00741C5.5597 11.5269 6.00741 11.9746 6.00741 12.5269V16.5132C6.00741 17.0655 5.5597 17.5132 5.00741 17.5132H3.87865C3.65538 17.5132 3.43429 17.4691 3.22801 17.3834C3.02173 17.2977 2.83431 17.1721 2.67645 17.0137C2.51859 16.8553 2.39339 16.6673 2.30798 16.4603C2.22258 16.2534 2.17865 16.0316 2.17871 15.8077V13.2324C2.17865 13.0085 2.22258 12.7867 2.30798 12.5798C2.39339 12.3728 2.51859 12.1848 2.67645 12.0264C2.83431 11.868 3.02173 11.7424 3.22801 11.6567C3.43429 11.571 3.65538 11.5269 3.87865 11.5269Z" stroke="#717171" stroke-width="1.5" stroke-miterlimit="10"/>
<path d="M19.7552 17.5125H18.6255C18.0732 17.5125 17.6255 17.0647 17.6255 16.5125V12.5261C17.6255 11.9738 18.0732 11.5261 18.6255 11.5261H19.7552C20.206 11.5263 20.6382 11.7061 20.9568 12.026C21.2754 12.3458 21.4543 12.7795 21.4542 13.2316V15.8069C21.4543 16.259 21.2754 16.6927 20.9568 17.0126C20.6382 17.3324 20.206 17.5122 19.7552 17.5125Z" stroke="#717171" stroke-width="1.5" stroke-miterlimit="10"/>
<path d="M19 11V8.15165C19 6.78546 18.2626 5.47521 16.9501 4.50911C15.6375 3.54301 13.8572 3.00017 12.0009 3V3C11.0816 2.99991 10.1712 3.1331 9.32183 3.39196C8.47245 3.65082 7.70067 4.03027 7.05056 4.50865C6.40046 4.98704 5.88477 5.55498 5.53293 6.18005C5.18109 6.80511 5 7.47507 5 8.15165V11" stroke="#717171" stroke-width="1.5" stroke-miterlimit="10" stroke-linecap="round"/>
<path d="M15 22H16.987C17.5209 22 18.0329 21.7175 18.4104 21.2146C18.7879 20.7117 19 20.0296 19 19.3184V17" stroke="#717171" stroke-width="1.5" stroke-miterlimit="10"/>
<path d="M13.9842 20.0862H10.1798C9.37755 20.0862 8.72717 20.7385 8.72717 21.5432C8.72717 22.348 9.37755 23.0003 10.1798 23.0003H13.9842C14.7865 23.0003 15.4369 22.348 15.4369 21.5432C15.4369 20.7385 14.7865 20.0862 13.9842 20.0862Z" stroke="#717171" stroke-width="1.5" stroke-miterlimit="10"/>
</svg>
