<svg width="24" height="24" viewBox="0 0 24 24" fill="none" xmlns="http://www.w3.org/2000/svg">
<path d="M19.75 5C19.75 5.13807 19.6381 5.25 19.5 5.25L4.5 5.25C4.36193 5.25 4.25 5.13807 4.25 5L4.25 3C4.25 1.75736 5.25736 0.75 6.5 0.75L17.5 0.750001C18.7426 0.750001 19.75 1.75736 19.75 3L19.75 5Z" stroke="#717171" stroke-width="1.5"/>
<path d="M5.25 8.75H18.75V21C18.75 22.2426 17.7426 23.25 16.5 23.25H7.5C6.25736 23.25 5.25 22.2426 5.25 21V8.75Z" stroke="#717171" stroke-width="1.5"/>
<line x1="14.95" y1="11.75" x2="14.95" y2="20.25" stroke="#717171" stroke-width="1.5" stroke-linecap="round"/>
<line x1="8.95001" y1="11.75" x2="8.95001" y2="20.25" stroke="#717171" stroke-width="1.5" stroke-linecap="round"/>
<line x1="11.95" y1="11.75" x2="11.95" y2="20.25" stroke="#717171" stroke-width="1.5" stroke-linecap="round"/>
</svg>
