<svg width="24" height="25" viewBox="0 0 24 25" fill="none" xmlns="http://www.w3.org/2000/svg">
<path d="M22.6016 16.981C23.2005 15.5435 23.5 14.0498 23.5 12.5C23.5 10.9502 23.2005 9.45654 22.6016 8.01904C22.0176 6.64893 21.194 5.43229 20.1309 4.36914C19.0677 3.30599 17.8511 2.48242 16.481 1.89844C15.0435 1.29948 13.5498 1 12 1C10.6973 1 9.43945 1.21338 8.22656 1.64014C7.04362 2.05192 5.96175 2.6359 4.98096 3.39209C4.00765 4.14828 3.17285 5.03922 2.47656 6.06494C2.12467 6.58154 1.81958 7.12061 1.56128 7.68213C1.40141 8.02967 1.25947 8.38581 1.13545 8.75056C1.0082 9.1248 1.23471 9.51921 1.6157 9.62452C1.99805 9.73021 2.39107 9.50469 2.523 9.13058C2.81314 8.30779 3.20383 7.54046 3.69507 6.82861C4.32023 5.92269 5.05957 5.14404 5.91309 4.49268C6.7666 3.84131 7.7137 3.33594 8.75439 2.97656C9.79508 2.61719 10.877 2.4375 12 2.4375C12.9209 2.4375 13.81 2.55729 14.6672 2.79688C15.5245 3.03646 16.3256 3.37524 17.0706 3.81323C17.8155 4.25122 18.495 4.77718 19.1089 5.39111C19.7228 6.00504 20.2488 6.68449 20.6868 7.42944C21.1248 8.1744 21.4635 8.97363 21.7031 9.82715C21.9427 10.6807 22.0625 11.5716 22.0625 12.5C22.0625 13.4209 21.9427 14.31 21.7031 15.1672C21.4635 16.0245 21.1248 16.8256 20.6868 17.5706C20.2488 18.3155 19.7228 18.995 19.1089 19.6089C18.495 20.2228 17.8155 20.7488 17.0706 21.1868C16.3256 21.6248 15.5245 21.9635 14.6672 22.2031C13.81 22.4427 12.9209 22.5625 12 22.5625C11.0267 22.5625 10.0833 22.4259 9.16992 22.1526C8.25651 21.8793 7.40487 21.4919 6.61499 20.9902C5.82511 20.4886 5.11385 19.884 4.4812 19.1765C3.84855 18.469 3.32633 17.681 2.91455 16.8125H5.53125C5.9282 16.8125 6.25 16.4907 6.25 16.0938C6.25 15.6968 5.9282 15.375 5.53125 15.375H0.5V20.4062C0.5 20.8032 0.821795 21.125 1.21875 21.125C1.6157 21.125 1.9375 20.8032 1.9375 20.4062V18.0479C2.06478 18.2874 2.20329 18.5214 2.35303 18.7498C2.50277 18.9781 2.65999 19.2008 2.82471 19.418C3.52848 20.3538 4.35205 21.1624 5.29541 21.8438C6.28369 22.5475 7.3431 23.0828 8.47363 23.4497C9.60417 23.8166 10.7796 24 12 24C13.5498 24 15.0435 23.7005 16.481 23.1016C17.8511 22.5176 19.0677 21.694 20.1309 20.6309C21.194 19.5677 22.0176 18.3511 22.6016 16.981Z" fill="#717171" stroke="#717171" stroke-width="0.5"/>
<path d="M12 12.9155V7.46875C12 7.0718 11.6782 6.75 11.2812 6.75C10.8843 6.75 10.5625 7.0718 10.5625 7.46875V13.522L14.5823 17.5318C14.8619 17.8107 15.3146 17.8104 15.5938 17.5312C15.873 17.252 15.8733 16.7994 15.5945 16.5198L12 12.9155Z" fill="#717171" stroke="#717171" stroke-width="0.5"/>
</svg>
