<svg width="24" height="24" viewBox="0 0 24 24" fill="none" xmlns="http://www.w3.org/2000/svg">
<path d="M3.31345 7.1269C4.59114 7.1269 5.6269 6.09114 5.6269 4.81345C5.6269 3.53577 4.59114 2.5 3.31345 2.5C2.03577 2.5 1 3.53577 1 4.81345C1 6.09114 2.03577 7.1269 3.31345 7.1269Z" stroke="#717171" stroke-width="1.5" stroke-linecap="round" stroke-linejoin="round"/>
<path d="M3.31345 14.2241C4.59114 14.2241 5.6269 13.1883 5.6269 11.9106C5.6269 10.6329 4.59114 9.59717 3.31345 9.59717C2.03577 9.59717 1 10.6329 1 11.9106C1 13.1883 2.03577 14.2241 3.31345 14.2241Z" stroke="#717171" stroke-width="1.5" stroke-linecap="round" stroke-linejoin="round"/>
<path d="M3.31345 21.5524C4.59114 21.5524 5.6269 20.5167 5.6269 19.239C5.6269 17.9613 4.59114 16.9255 3.31345 16.9255C2.03577 16.9255 1 17.9613 1 19.239C1 20.5167 2.03577 21.5524 3.31345 21.5524Z" stroke="#717171" stroke-width="1.5" stroke-linecap="round" stroke-linejoin="round"/>
<path d="M9.32843 11.9106H23.2169" stroke="#717171" stroke-width="1.5" stroke-linecap="round" stroke-linejoin="round"/>
<path d="M9.32843 19.2393H23.2169" stroke="#717171" stroke-width="1.5" stroke-linecap="round" stroke-linejoin="round"/>
<path d="M9.32843 4.81348H23.2169" stroke="#717171" stroke-width="1.5" stroke-linecap="round" stroke-linejoin="round"/>
</svg>
