<svg width="24" height="24" viewBox="0 0 24 24" fill="none" xmlns="http://www.w3.org/2000/svg">
<path d="M22.5939 20.9936C22.5409 21.0021 22.488 21.0021 22.435 20.9936L15.3724 18.3618L7.73596 20.925H7.67416H7.58588H7.44462L1.26485 18.2504C1.10594 18.1818 1 18.0275 1 17.8561V3.44577C1 3.21431 1.19422 3.01714 1.44141 3.01714C1.50321 3.01714 1.56501 3.02572 1.61798 3.05143L7.63884 5.6146L15.3812 3H15.5048H15.6108H15.6549L22.7175 5.63174C22.8852 5.69175 23 5.85463 23 6.03465C23 6.5147 23 16.7759 23 20.5478C23 20.7793 22.8058 20.9764 22.5586 20.9764L22.5939 20.9936ZM15.9727 17.6503L22.1525 19.9477C22.1525 16.6645 22.1525 6.42041 22.1525 6.37754L15.9727 4.05441V17.6503ZM8.02729 6.41183V19.8963L15.0899 17.5046V4.02012L8.02729 6.41183ZM1.84751 17.5132L7.14446 19.802V6.41183L1.84751 4.09727V17.5132Z" fill="#717171" stroke="#717171" stroke-linejoin="round"/>
</svg>
