<svg width="30" height="30" viewBox="0 0 30 30" fill="none" xmlns="http://www.w3.org/2000/svg">
<path d="M24.2867 19.6665H20.18C19.8965 19.6665 19.6667 19.8963 19.6667 20.1798V24.2865C19.6667 24.57 19.8965 24.7998 20.18 24.7998H24.2867C24.5702 24.7998 24.8 24.57 24.8 24.2865V20.1798C24.8 19.8963 24.5702 19.6665 24.2867 19.6665Z" fill="black"/>
<path d="M19.1417 15.4668H15.9917C15.7017 15.4668 15.4667 15.7018 15.4667 15.9918V19.1418C15.4667 19.4317 15.7017 19.6668 15.9917 19.6668H19.1417C19.4316 19.6668 19.6667 19.4317 19.6667 19.1418V15.9918C19.6667 15.7018 19.4316 15.4668 19.1417 15.4668Z" fill="black"/>
<path d="M28.475 24.7998H25.325C25.0351 24.7998 24.8 25.0349 24.8 25.3248V28.4748C24.8 28.7648 25.0351 28.9998 25.325 28.9998H28.475C28.765 28.9998 29 28.7648 29 28.4748V25.3248C29 25.0349 28.765 24.7998 28.475 24.7998Z" fill="black"/>
<path d="M28.4556 15.4668H26.2778C25.9771 15.4668 25.7333 15.7106 25.7333 16.0112V18.189C25.7333 18.4897 25.9771 18.7335 26.2778 18.7335H28.4556C28.7562 18.7335 29 18.4897 29 18.189V16.0112C29 15.7106 28.7562 15.4668 28.4556 15.4668Z" fill="black"/>
<path d="M18.1889 25.7334H16.0111C15.7104 25.7334 15.4667 25.9772 15.4667 26.2778V28.4556C15.4667 28.7563 15.7104 29.0001 16.0111 29.0001H18.1889C18.4896 29.0001 18.7333 28.7563 18.7333 28.4556V26.2778C18.7333 25.9772 18.4896 25.7334 18.1889 25.7334Z" fill="black"/>
<path d="M27.5445 1H17.9991C17.4133 1 16.9384 1.45586 16.9384 2.01818V11.1818C16.9384 11.7441 17.4133 12.2 17.9991 12.2H27.5445C28.1303 12.2 28.6051 11.7441 28.6051 11.1818V2.01818C28.6051 1.45586 28.1303 1 27.5445 1Z" stroke="black" stroke-width="1.5" stroke-linecap="round" stroke-linejoin="round"/>
<path d="M8.46666 4.2666H4.73333C4.4756 4.2666 4.26666 4.47554 4.26666 4.73327V8.4666C4.26666 8.72433 4.4756 8.93327 4.73333 8.93327H8.46666C8.7244 8.93327 8.93333 8.72433 8.93333 8.4666V4.73327C8.93333 4.47554 8.7244 4.2666 8.46666 4.2666Z" fill="black"/>
<path d="M11.1818 1H2.01818C1.45586 1 1 1.45586 1 2.01818V11.1818C1 11.7441 1.45586 12.2 2.01818 12.2H11.1818C11.7441 12.2 12.2 11.7441 12.2 11.1818V2.01818C12.2 1.45586 11.7441 1 11.1818 1Z" stroke="black" stroke-width="1.5" stroke-linecap="round" stroke-linejoin="round"/>
<path d="M11.1818 16.9385H2.01818C1.45586 16.9385 1 17.4133 1 17.9991V27.5445C1 28.1303 1.45586 28.6051 2.01818 28.6051H11.1818C11.7441 28.6051 12.2 28.1303 12.2 27.5445V17.9991C12.2 17.4133 11.7441 16.9385 11.1818 16.9385Z" stroke="black" stroke-width="1.5" stroke-linecap="round" stroke-linejoin="round"/>
<path d="M8.46666 20.3848H4.73333C4.4756 20.3848 4.26666 20.5937 4.26666 20.8514V24.5848C4.26666 24.8425 4.4756 25.0514 4.73333 25.0514H8.46666C8.7244 25.0514 8.93333 24.8425 8.93333 24.5848V20.8514C8.93333 20.5937 8.7244 20.3848 8.46666 20.3848Z" fill="black"/>
<path d="M24.5847 4.2666H20.8513C20.5936 4.2666 20.3847 4.47554 20.3847 4.73327V8.4666C20.3847 8.72433 20.5936 8.93327 20.8513 8.93327H24.5847C24.8424 8.93327 25.0513 8.72433 25.0513 8.4666V4.73327C25.0513 4.47554 24.8424 4.2666 24.5847 4.2666Z" fill="black"/>
</svg>
