<svg width="35" height="27" viewBox="0 0 35 27" fill="none" xmlns="http://www.w3.org/2000/svg">
<circle cx="8.92857" cy="16.0715" r="6.92857" fill="#5CE1CD" stroke="#5CE1CD" stroke-width="4"/>
<path d="M22.9198 8.92857C22.9198 12.7551 19.8178 15.8571 15.9912 15.8571C12.1647 15.8571 9.06265 12.7551 9.06265 8.92857C9.06265 5.10203 12.1647 2 15.9912 2C19.8178 2 22.9198 5.10203 22.9198 8.92857Z" stroke="#5CE1CD" stroke-width="4"/>
<path d="M25.9805 20.2845C26.5662 19.6987 26.5662 18.7489 25.9805 18.1632C25.3947 17.5774 24.4449 17.5774 23.8591 18.1632L25.9805 20.2845ZM17.7238 24.9198C17.7238 25.7482 18.3954 26.4198 19.2238 26.4198L32.7238 26.4198C33.5523 26.4198 34.2238 25.7482 34.2238 24.9198C34.2238 24.0913 33.5523 23.4198 32.7238 23.4198L20.7238 23.4198L20.7238 11.4198C20.7238 10.5913 20.0523 9.91977 19.2238 9.91977C18.3954 9.91977 17.7238 10.5913 17.7238 11.4198L17.7238 24.9198ZM23.8591 18.1632L18.1632 23.8591L20.2845 25.9804L25.9805 20.2845L23.8591 18.1632Z" fill="#5CE1CD"/>
<path d="M9.06365 21.6507C8.85237 21.6507 8.67387 21.5761 8.52815 21.4271C8.38244 21.2781 8.30958 21.0919 8.30958 20.8683L8.30958 20.0413L8.63744 20.3431C8.14929 20.3207 7.72672 20.2574 7.36972 20.1531C7.01272 20.0488 6.72129 19.9445 6.49543 19.8402C6.306 19.7507 6.17121 19.6241 6.09107 19.4602C6.01821 19.2963 5.98907 19.1286 6.00364 18.9573C6.0255 18.7859 6.08743 18.6294 6.18943 18.4879C6.29143 18.3463 6.42257 18.2532 6.58286 18.2085C6.75043 18.1563 6.9435 18.1787 7.16208 18.2755C7.30779 18.3575 7.52636 18.4432 7.81779 18.5326C8.11651 18.6145 8.48444 18.6555 8.92158 18.6555C9.22758 18.6555 9.46801 18.6257 9.64287 18.5661C9.82501 18.5065 9.95251 18.4283 10.0254 18.3314C10.1055 18.2271 10.1456 18.1153 10.1456 17.9961C10.1456 17.8844 10.1164 17.7912 10.0582 17.7167C10.0072 17.6348 9.91973 17.564 9.79587 17.5044C9.67201 17.4373 9.5008 17.3777 9.28223 17.3256L8.04729 17.0573C7.36972 16.9009 6.86336 16.6401 6.52822 16.275C6.20036 15.9025 6.03643 15.4219 6.03643 14.8333C6.03643 14.3863 6.14207 13.9877 6.35336 13.6375C6.57193 13.2799 6.87429 12.9893 7.26043 12.7658C7.65386 12.5423 8.11286 12.4007 8.63744 12.3411L8.30958 12.5311L8.30958 11.7823C8.30958 11.5588 8.38244 11.3725 8.52815 11.2235C8.67387 11.0745 8.85237 11 9.06365 11C9.28223 11 9.46437 11.0745 9.61008 11.2235C9.7558 11.3725 9.82866 11.5588 9.82866 11.7823L9.82866 12.5311L9.5008 12.3188C9.77766 12.3262 10.0764 12.3746 10.3969 12.464C10.7175 12.546 10.998 12.6615 11.2384 12.8105C11.406 12.8999 11.5226 13.0228 11.5882 13.1793C11.661 13.3358 11.6865 13.496 11.6647 13.6599C11.6501 13.8163 11.5918 13.9579 11.4898 14.0846C11.3951 14.2112 11.2639 14.2969 11.0964 14.3416C10.9361 14.3789 10.743 14.3491 10.5172 14.2522C10.3496 14.1777 10.1602 14.1181 9.94887 14.0734C9.74487 14.0212 9.48258 13.9951 9.16201 13.9951C8.77587 13.9951 8.47715 14.0659 8.26586 14.2075C8.06186 14.3491 7.95986 14.5316 7.95986 14.7551C7.95986 14.9041 8.01815 15.0308 8.13472 15.1351C8.25858 15.2319 8.48079 15.3176 8.80137 15.3921L10.0472 15.6715C10.7394 15.828 11.2494 16.0888 11.5772 16.4538C11.9124 16.8115 12.0799 17.2771 12.0799 17.8508C12.0799 18.2979 11.9743 18.6928 11.763 19.0355C11.5517 19.3782 11.2567 19.6576 10.8778 19.8737C10.5062 20.0897 10.0727 20.2313 9.5773 20.2984L9.82866 20.0301L9.82866 20.8683C9.82866 21.0919 9.7558 21.2781 9.61008 21.4271C9.47166 21.5761 9.28951 21.6507 9.06365 21.6507Z" fill="#D8F3F1"/>
</svg>
