<svg width="24" height="24" viewBox="0 0 24 24" fill="none" xmlns="http://www.w3.org/2000/svg">
<path d="M18.9329 5.09037C18.7674 4.96847 18.5541 4.96954 18.3924 5.09572C18.2308 5.2219 18.1543 5.44752 18.2021 5.66138C18.4269 6.69112 17.9505 7.32202 17.7984 7.49097C17.4914 7.83421 17.0648 8.02348 16.599 8.02348C16.07 8.02348 15.5104 7.78716 14.7423 7.46316C14.619 7.41398 14.4803 7.42253 14.3617 7.4899C14.244 7.55726 14.156 7.67703 14.1196 7.82031C13.8547 8.85968 13.2741 10.099 12.0019 10.099C10.7297 10.099 10.1482 8.85968 9.88513 7.82031C9.84878 7.67596 9.73304 7.56689 9.61252 7.49952C9.49391 7.43215 9.32748 7.43643 9.20122 7.48776C8.49339 7.78716 7.93383 8.02348 7.40487 8.02348C6.93904 8.02348 6.51243 7.83421 6.20539 7.49097C6.0667 7.33699 5.63052 6.76598 5.78835 5.85065C5.8247 5.63572 5.74148 5.41651 5.576 5.29889C5.41148 5.18233 5.19913 5.18768 5.03843 5.31493C2.50939 7.34661 1 10.3343 1 13.3069C1 19.1026 6.038 24 12 24C17.962 24 23 19.1026 23 13.3069C23.0019 10.0798 21.481 7.00764 18.9329 5.09037ZM12.0019 21.8614C7.16096 21.8614 2.91496 17.8643 2.91496 13.3069C2.91496 13.0118 3.12922 12.7723 3.39322 12.7723C3.65722 12.7723 3.87148 13.0118 3.87148 13.3069C3.87148 17.2944 7.67078 20.7921 12.0019 20.7921C12.2659 20.7921 12.4802 21.0316 12.4802 21.3267C12.4802 21.6219 12.2659 21.8614 12.0019 21.8614Z" fill="#D91E41"/>
<path d="M17.2303 5.843C16.777 4.7 15.0165 3 12.0227 3C9.20422 3 7.20035 4.976 6.80072 5.98401C6.61193 6.46101 6.77772 6.73401 6.89272 6.85401C6.9828 6.94701 7.14668 7.05901 7.41789 7.05901C7.77343 7.05901 8.2641 6.86601 8.88318 6.62101C9.42272 6.40901 10.061 6.15601 10.6034 6.05101C10.6638 7.05401 10.9235 9.00001 12.0227 9.00001C13.1219 9.00001 13.3816 7.05401 13.442 6.05101C13.9834 6.15601 14.6226 6.40901 15.1622 6.62101C15.7813 6.86601 16.2719 7.05901 16.6275 7.05901C16.6275 7.05901 16.6275 7.05901 16.6284 7.05901C16.846 7.05901 17.0213 6.99001 17.1526 6.85401C17.2791 6.72201 17.4574 6.41601 17.2303 5.843Z" fill="#068639"/>
<path d="M12.0227 5.00001C11.7582 5.00001 11.5435 4.77601 11.5435 4.50001C11.5435 1.808 13.7736 0 15.856 0C16.1205 0 16.3352 0.224 16.3352 0.500001C16.3352 0.776001 16.1205 1 15.856 1C14.2364 1 12.5019 2.406 12.5019 4.50001C12.5019 4.77601 12.2872 5.00001 12.0227 5.00001Z" fill="#068639"/>
</svg>
