<svg width="45" height="27" viewBox="0 0 45 27" fill="none" xmlns="http://www.w3.org/2000/svg">
<path d="M40.535 8.41166C40.535 10.8205 38.5822 12.7732 36.1734 12.7732C33.7646 12.7732 31.8118 10.8205 31.8118 8.41166C31.8118 6.00283 33.7646 4.05008 36.1734 4.05008C38.5822 4.05008 40.535 6.00283 40.535 8.41166Z" fill="#F08F5F"/>
<path d="M34.0901 14.6154C34.9924 16.0214 35.5157 17.6939 35.5157 19.4886V22.9503H44.1697V19.8002C44.1697 17.0451 42.5841 14.6603 40.2756 13.5086C39.1535 14.4128 37.7267 14.9541 36.1735 14.9541C35.4451 14.9541 34.7445 14.835 34.0901 14.6154Z" fill="#F08F5F"/>
<path d="M12.3578 8.41166C12.3578 10.8205 10.4051 12.7732 7.99625 12.7732C5.58742 12.7732 3.63468 10.8205 3.63468 8.41166C3.63468 6.00283 5.58742 4.05008 7.99625 4.05008C10.4051 4.05008 12.3578 6.00283 12.3578 8.41166Z" fill="#F08F5F"/>
<path d="M10.0795 14.6155C9.4251 14.8352 8.72454 14.9542 7.99618 14.9542C6.44285 14.9542 5.01595 14.4129 3.89386 13.5085C1.58551 14.6603 0 17.045 0 19.8001V22.9501H8.65392V19.4886C8.65392 17.6939 9.17719 16.0215 10.0795 14.6155Z" fill="#F08F5F"/>
<path d="M28.3157 6.23083C28.3157 9.67202 25.526 12.4617 22.0848 12.4617C18.6436 12.4617 15.854 9.67202 15.854 6.23083C15.854 2.78964 18.6436 0 22.0848 0C25.526 0 28.3157 2.78964 28.3157 6.23083Z" fill="#F08F5F"/>
<path d="M15.459 12.8225C12.6711 13.7547 10.6617 16.3869 10.6617 19.4884V27H33.5081V19.4884C33.5081 16.3869 31.4987 13.7546 28.7108 12.8225C27.0181 14.5239 24.6745 15.5771 22.0849 15.5771C19.4953 15.5771 17.1517 14.5239 15.459 12.8225Z" fill="#F08F5F"/>
</svg>
